<svg width="147" height="187" viewBox="0 0 147 187" fill="none" xmlns="http://www.w3.org/2000/svg">
<rect y="17" width="99" height="137" fill="#FACC15"/>
<g filter="url(#filter0_d_3_6)">
<path d="M22.984 36.28H36.936V94.392H37.576L46.792 82.488L62.792 64.44H79.048L55.752 90.168L81.864 131H65.224L46.152 99.256L36.936 109.24V131H22.984V36.28Z" fill="#1E1E1E"/>
<path d="M22.984 36.28V35.28H21.984V36.28H22.984ZM36.936 36.28H37.936V35.28H36.936V36.28ZM36.936 94.392H35.936V95.392H36.936V94.392ZM37.576 94.392V95.392H38.0665L38.3667 95.0042L37.576 94.392ZM46.792 82.488L46.0437 81.8246L46.0216 81.8495L46.0013 81.8758L46.792 82.488ZM62.792 64.44V63.44H62.3421L62.0437 63.7766L62.792 64.44ZM79.048 64.44L79.7893 65.1112L81.3025 63.44H79.048V64.44ZM55.752 90.168L55.0107 89.4968L54.4979 90.0631L54.9095 90.7068L55.752 90.168ZM81.864 131V132H83.6905L82.7065 130.461L81.864 131ZM65.224 131L64.3668 131.515L64.6582 132H65.224V131ZM46.152 99.256L47.0092 98.741L46.3221 97.5974L45.4172 98.5777L46.152 99.256ZM36.936 109.24L36.2012 108.562L35.936 108.849V109.24H36.936ZM36.936 131V132H37.936V131H36.936ZM22.984 131H21.984V132H22.984V131ZM22.984 37.28H36.936V35.28H22.984V37.28ZM35.936 36.28V94.392H37.936V36.28H35.936ZM36.936 95.392H37.576V93.392H36.936V95.392ZM38.3667 95.0042L47.5827 83.1002L46.0013 81.8758L36.7853 93.7798L38.3667 95.0042ZM47.5403 83.1514L63.5403 65.1034L62.0437 63.7766L46.0437 81.8246L47.5403 83.1514ZM62.792 65.44H79.048V63.44H62.792V65.44ZM78.3067 63.7688L55.0107 89.4968L56.4933 90.8392L79.7893 65.1112L78.3067 63.7688ZM54.9095 90.7068L81.0215 131.539L82.7065 130.461L56.5945 89.6292L54.9095 90.7068ZM81.864 130H65.224V132H81.864V130ZM66.0812 130.485L47.0092 98.741L45.2948 99.771L64.3668 131.515L66.0812 130.485ZM45.4172 98.5777L36.2012 108.562L37.6708 109.918L46.8868 99.9343L45.4172 98.5777ZM35.936 109.24V131H37.936V109.24H35.936ZM36.936 130H22.984V132H36.936V130ZM23.984 131V36.28H21.984V131H23.984Z" fill="black"/>
</g>
<defs>
<filter id="filter0_d_3_6" x="18.984" y="36.28" width="66.88" height="102.72" filterUnits="userSpaceOnUse" color-interpolation-filters="sRGB">
<feFlood flood-opacity="0" result="BackgroundImageFix"/>
<feColorMatrix in="SourceAlpha" type="matrix" values="0 0 0 0 0 0 0 0 0 0 0 0 0 0 0 0 0 0 127 0" result="hardAlpha"/>
<feOffset dy="4"/>
<feGaussianBlur stdDeviation="2"/>
<feComposite in2="hardAlpha" operator="out"/>
<feColorMatrix type="matrix" values="0 0 0 0 0 0 0 0 0 0 0 0 0 0 0 0 0 0 0.25 0"/>
<feBlend mode="normal" in2="BackgroundImageFix" result="effect1_dropShadow_3_6"/>
<feBlend mode="normal" in="SourceGraphic" in2="effect1_dropShadow_3_6" result="shape"/>
</filter>
</defs>
</svg>
