<svg width="220" height="72" viewBox="0 0 220 72" fill="none" xmlns="http://www.w3.org/2000/svg">
<rect width="220" height="72" fill="white"/>
<ellipse cx="16.374" cy="36.5" rx="16.374" ry="19.5" fill="#1E1E1E"/>
<path d="M62.9771 36.5C62.9771 45.6127 61.2853 53 59.1985 53C57.1116 53 55.4198 45.6127 55.4198 36.5C55.4198 27.3873 57.1116 20 59.1985 20C61.2853 20 62.9771 27.3873 62.9771 36.5Z" fill="#1E1E1E"/>
<ellipse cx="44.084" cy="36" rx="7.1374" ry="18" fill="#1E1E1E"/>
<path d="M78.3111 38.264L74.8551 42.224V50H70.7871V24.872H74.8551V37.616H74.9991L78.5991 33.044L85.3671 24.872H90.1191L81.1551 35.456L90.8391 50H85.9431L78.3111 38.264ZM100.695 50.432C99.3507 50.432 98.1507 50.204 97.0947 49.748C96.0387 49.292 95.1387 48.644 94.3947 47.804C93.6507 46.94 93.0747 45.908 92.6667 44.708C92.2827 43.484 92.0907 42.128 92.0907 40.64C92.0907 39.152 92.2827 37.808 92.6667 36.608C93.0747 35.384 93.6507 34.352 94.3947 33.512C95.1387 32.648 96.0387 31.988 97.0947 31.532C98.1507 31.076 99.3507 30.848 100.695 30.848C102.063 30.848 103.263 31.088 104.295 31.568C105.351 32.048 106.227 32.72 106.923 33.584C107.619 34.424 108.135 35.408 108.471 36.536C108.831 37.664 109.011 38.876 109.011 40.172V41.648H96.1587V42.26C96.1587 43.7 96.5787 44.888 97.4187 45.824C98.2827 46.736 99.5067 47.192 101.091 47.192C102.243 47.192 103.215 46.94 104.007 46.436C104.799 45.932 105.471 45.248 106.023 44.384L108.327 46.652C107.631 47.804 106.623 48.728 105.303 49.424C103.983 50.096 102.447 50.432 100.695 50.432ZM100.695 33.908C100.023 33.908 99.3987 34.028 98.8227 34.268C98.2707 34.508 97.7907 34.844 97.3827 35.276C96.9987 35.708 96.6987 36.224 96.4827 36.824C96.2667 37.424 96.1587 38.084 96.1587 38.804V39.056H104.871V38.696C104.871 37.256 104.499 36.104 103.755 35.24C103.011 34.352 101.991 33.908 100.695 33.908ZM113.355 50V31.28H117.279V34.376H117.459C117.867 33.368 118.479 32.528 119.295 31.856C120.135 31.184 121.275 30.848 122.715 30.848C124.635 30.848 126.123 31.484 127.179 32.756C128.259 34.004 128.799 35.792 128.799 38.12V50H124.875V38.624C124.875 35.696 123.699 34.232 121.347 34.232C120.843 34.232 120.339 34.304 119.835 34.448C119.355 34.568 118.923 34.76 118.539 35.024C118.155 35.288 117.843 35.624 117.603 36.032C117.387 36.44 117.279 36.92 117.279 37.472V50H113.355ZM132.725 50V46.832L142.769 34.484H133.049V31.28H147.413V34.304L137.225 46.796H147.665V50H132.725ZM153.76 27.932C152.944 27.932 152.344 27.74 151.96 27.356C151.6 26.972 151.42 26.48 151.42 25.88V25.268C151.42 24.668 151.6 24.176 151.96 23.792C152.344 23.408 152.944 23.216 153.76 23.216C154.576 23.216 155.164 23.408 155.524 23.792C155.884 24.176 156.064 24.668 156.064 25.268V25.88C156.064 26.48 155.884 26.972 155.524 27.356C155.164 27.74 154.576 27.932 153.76 27.932ZM151.78 31.28H155.704V50H151.78V31.28ZM172.648 46.904H172.504C172.336 47.36 172.108 47.804 171.82 48.236C171.556 48.668 171.208 49.052 170.776 49.388C170.368 49.7 169.864 49.952 169.264 50.144C168.688 50.336 168.016 50.432 167.248 50.432C165.304 50.432 163.792 49.808 162.712 48.56C161.656 47.312 161.128 45.524 161.128 43.196V31.28H165.052V42.692C165.052 45.596 166.252 47.048 168.652 47.048C169.156 47.048 169.648 46.988 170.128 46.868C170.608 46.724 171.028 46.52 171.388 46.256C171.772 45.992 172.072 45.656 172.288 45.248C172.528 44.84 172.648 44.36 172.648 43.808V31.28H176.572V50H172.648V46.904ZM182.191 50V31.28H186.115V34.376H186.295C186.487 33.896 186.715 33.44 186.979 33.008C187.267 32.576 187.603 32.204 187.987 31.892C188.395 31.556 188.863 31.304 189.391 31.136C189.943 30.944 190.579 30.848 191.299 30.848C192.571 30.848 193.699 31.16 194.683 31.784C195.667 32.408 196.387 33.368 196.843 34.664H196.951C197.287 33.608 197.935 32.708 198.895 31.964C199.855 31.22 201.091 30.848 202.603 30.848C204.475 30.848 205.927 31.484 206.959 32.756C207.991 34.004 208.507 35.792 208.507 38.12V50H204.583V38.588C204.583 37.148 204.307 36.068 203.755 35.348C203.203 34.604 202.327 34.232 201.127 34.232C200.623 34.232 200.143 34.304 199.687 34.448C199.231 34.568 198.823 34.76 198.463 35.024C198.127 35.288 197.851 35.624 197.635 36.032C197.419 36.44 197.311 36.908 197.311 37.436V50H193.387V38.588C193.387 35.684 192.247 34.232 189.967 34.232C189.487 34.232 189.007 34.304 188.527 34.448C188.071 34.568 187.663 34.76 187.303 35.024C186.943 35.288 186.655 35.624 186.439 36.032C186.223 36.44 186.115 36.908 186.115 37.436V50H182.191Z" fill="#1E1E1E"/>
</svg>
